<?xml version="1.0" encoding="UTF-8"?><svg viewBox="0 0 518 112" role="img" aria-label="Te Awhi" focusable="false"><g stroke="#26251f" stroke-width="5.5" stroke-linecap="round" fill="none"><line x1="6.0" y1="21.5" x2="64.0" y2="21.5"/><line x1="6.0" y1="10.5" x2="29.2" y2="10.5"/><line x1="40.8" y1="10.5" x2="64.0" y2="10.5"/><line x1="29.5" y1="26.0" x2="29.5" y2="67.6"/><line x1="29.5" y1="75.6" x2="29.5" y2="106.0"/><line x1="40.5" y1="26.0" x2="40.5" y2="56.4"/><line x1="40.5" y1="64.4" x2="40.5" y2="106.0"/><line x1="92.5" y1="8.0" x2="92.5" y2="57.9"/><line x1="92.5" y1="67.5" x2="92.5" y2="104.0"/><line x1="103.5" y1="8.0" x2="103.5" y2="44.5"/><line x1="103.5" y1="54.1" x2="103.5" y2="104.0"/><line x1="110.0" y1="21.5" x2="142.0" y2="21.5"/><line x1="110.0" y1="10.5" x2="142.0" y2="10.5"/><line x1="110.0" y1="61.5" x2="142.0" y2="61.5"/><line x1="110.0" y1="50.5" x2="142.0" y2="50.5"/><line x1="110.0" y1="101.5" x2="142.0" y2="101.5"/><line x1="110.0" y1="90.5" x2="142.0" y2="90.5"/><line x1="228.8" y1="8.4" x2="213.2" y2="58.3"/><line x1="210.2" y1="67.9" x2="198.8" y2="104.4"/><line x1="239.2" y1="11.6" x2="227.8" y2="48.1"/><line x1="224.8" y1="57.7" x2="209.2" y2="107.6"/><line x1="234.8" y1="11.6" x2="246.2" y2="48.1"/><line x1="249.2" y1="57.7" x2="264.8" y2="107.6"/><line x1="245.2" y1="8.4" x2="260.8" y2="58.3"/><line x1="263.8" y1="67.9" x2="275.2" y2="104.4"/><line x1="219.8" y1="87.5" x2="254.2" y2="87.5"/><line x1="219.8" y1="76.5" x2="254.2" y2="76.5"/><line x1="296.6" y1="7.1" x2="307.0" y2="59.1"/><line x1="309.0" y1="69.1" x2="316.6" y2="107.1"/><line x1="307.4" y1="4.9" x2="315.0" y2="42.9"/><line x1="317.0" y1="52.9" x2="327.4" y2="104.9"/><line x1="327.4" y1="107.1" x2="334.6" y2="72.2"/><line x1="336.5" y1="63.0" x2="346.4" y2="15.1"/><line x1="316.6" y1="104.9" x2="326.5" y2="57.0"/><line x1="328.4" y1="47.8" x2="335.6" y2="12.9"/><line x1="335.6" y1="15.1" x2="345.5" y2="63.0"/><line x1="347.4" y1="72.2" x2="354.6" y2="107.1"/><line x1="346.4" y1="12.9" x2="353.6" y2="47.8"/><line x1="355.5" y1="57.0" x2="365.4" y2="104.9"/><line x1="365.4" y1="107.1" x2="373.0" y2="69.1"/><line x1="375.0" y1="59.1" x2="385.4" y2="7.1"/><line x1="354.6" y1="104.9" x2="365.0" y2="52.9"/><line x1="367.0" y1="42.9" x2="374.6" y2="4.9"/><line x1="412.5" y1="8.0" x2="412.5" y2="57.9"/><line x1="412.5" y1="67.5" x2="412.5" y2="104.0"/><line x1="423.5" y1="8.0" x2="423.5" y2="44.5"/><line x1="423.5" y1="54.1" x2="423.5" y2="104.0"/><line x1="454.5" y1="8.0" x2="454.5" y2="44.5"/><line x1="454.5" y1="54.1" x2="454.5" y2="104.0"/><line x1="465.5" y1="8.0" x2="465.5" y2="57.9"/><line x1="465.5" y1="67.5" x2="465.5" y2="104.0"/><line x1="428.0" y1="61.5" x2="450.0" y2="61.5"/><line x1="428.0" y1="50.5" x2="450.0" y2="50.5"/><line x1="497.5" y1="8.0" x2="497.5" y2="57.9"/><line x1="497.5" y1="67.5" x2="497.5" y2="104.0"/><line x1="508.5" y1="8.0" x2="508.5" y2="44.5"/><line x1="508.5" y1="54.1" x2="508.5" y2="104.0"/></g></svg>